<svg width="50" height="50" viewBox="0 0 50 50" fill="none" xmlns="http://www.w3.org/2000/svg">
<path d="M25.0003 45.8334C36.5063 45.8334 45.8337 36.506 45.8337 25.0001C45.8337 13.4941 36.5063 4.16675 25.0003 4.16675C13.4944 4.16675 4.16699 13.4941 4.16699 25.0001C4.16699 36.506 13.4944 45.8334 25.0003 45.8334Z" fill="#3B5998"/>
<path fill-rule="evenodd" clip-rule="evenodd" d="M30.5368 17.6645C29.8875 17.5346 29.0105 17.4376 28.4591 17.4376C26.9656 17.4376 26.8687 18.0869 26.8687 19.1258V20.9752H30.6018L30.2764 24.806H26.8687V36.4584H22.1944V24.806H19.792V20.9752H22.1944V18.6056C22.1944 15.3598 23.7199 13.5417 27.55 13.5417C28.8807 13.5417 29.8547 13.7365 31.1204 13.9962L30.5368 17.6645Z" fill="white"/>
</svg>
