<svg width="50" height="50" viewBox="0 0 50 50" fill="none" xmlns="http://www.w3.org/2000/svg">
<path d="M24.9998 45.8334C36.5058 45.8334 45.8332 36.506 45.8332 25.0001C45.8332 13.4941 36.5058 4.16675 24.9998 4.16675C13.4939 4.16675 4.1665 13.4941 4.1665 25.0001C4.1665 36.506 13.4939 45.8334 24.9998 45.8334Z" fill="#C13584"/>
<path d="M25 14.7523C28.3376 14.7523 28.733 14.765 30.051 14.8251C31.2698 14.8807 31.9317 15.0844 32.3722 15.2555C32.9556 15.4823 33.372 15.7531 33.8094 16.1905C34.2469 16.628 34.5177 17.0444 34.7445 17.6278C34.9156 18.0683 35.1193 18.7302 35.1749 19.9489C35.235 21.267 35.2477 21.6623 35.2477 24.9999C35.2477 28.3376 35.235 28.7329 35.1749 30.051C35.1193 31.2698 34.9156 31.9316 34.7445 32.3721C34.5177 32.9555 34.2469 33.372 33.8095 33.8094C33.372 34.2468 32.9556 34.5176 32.3722 34.7444C31.9317 34.9156 31.2698 35.1192 30.051 35.1748C28.7332 35.2349 28.3379 35.2477 25 35.2477C21.6621 35.2477 21.2669 35.2349 19.949 35.1748C18.7302 35.1192 18.0683 34.9156 17.6278 34.7444C17.0444 34.5176 16.628 34.2468 16.1906 33.8094C15.7532 33.372 15.4823 32.9555 15.2555 32.3721C15.0844 31.9316 14.8807 31.2698 14.8251 30.051C14.765 28.7329 14.7523 28.3376 14.7523 24.9999C14.7523 21.6623 14.765 21.267 14.8251 19.9489C14.8807 18.7302 15.0844 18.0683 15.2555 17.6278C15.4823 17.0444 15.7531 16.628 16.1906 16.1906C16.628 15.7531 17.0444 15.4823 17.6278 15.2555C18.0683 15.0844 18.7302 14.8807 19.949 14.8251C21.267 14.765 21.6624 14.7523 25 14.7523ZM25 12.5C21.6052 12.5 21.1795 12.5144 19.8463 12.5752C18.5158 12.6359 17.6071 12.8472 16.812 13.1563C15.99 13.4756 15.2929 13.903 14.598 14.598C13.903 15.2929 13.4756 15.99 13.1563 16.812C12.8472 17.6071 12.6359 18.5157 12.5752 19.8463C12.5144 21.1795 12.5 21.6052 12.5 24.9999C12.5 28.3948 12.5144 28.8204 12.5752 30.1536C12.6359 31.4842 12.8472 32.3928 13.1563 33.1879C13.4756 34.0099 13.903 34.707 14.598 35.402C15.2929 36.0969 15.99 36.5243 16.812 36.8436C17.6071 37.1527 18.5158 37.364 19.8463 37.4247C21.1795 37.4855 21.6052 37.4999 25 37.4999C28.3948 37.4999 28.8205 37.4855 30.1537 37.4247C31.4842 37.364 32.3929 37.1527 33.188 36.8436C34.01 36.5243 34.7071 36.0969 35.402 35.402C36.0969 34.707 36.5244 34.0099 36.8437 33.1879C37.1528 32.3928 37.3641 31.4842 37.4248 30.1536C37.4856 28.8204 37.5 28.3948 37.5 24.9999C37.5 21.6052 37.4856 21.1795 37.4248 19.8463C37.3641 18.5157 37.1528 17.6071 36.8437 16.812C36.5244 15.99 36.0969 15.2929 35.402 14.598C34.7071 13.903 34.01 13.4756 33.188 13.1563C32.3929 12.8472 31.4842 12.6359 30.1537 12.5752C28.8205 12.5144 28.3948 12.5 25 12.5Z" fill="white"/>
<path d="M25.0063 18.5867C21.4612 18.5867 18.5874 21.4604 18.5874 25.0055C18.5874 28.5506 21.4612 31.4244 25.0063 31.4244C28.5514 31.4244 31.4252 28.5506 31.4252 25.0055C31.4252 21.4604 28.5514 18.5867 25.0063 18.5867ZM25.0063 29.1722C22.7051 29.1722 20.8396 27.3067 20.8396 25.0055C20.8396 22.7044 22.7051 20.8389 25.0063 20.8389C27.3075 20.8389 29.1729 22.7044 29.1729 25.0055C29.1729 27.3067 27.3075 29.1722 25.0063 29.1722Z" fill="white"/>
<path d="M33.1777 18.3294C33.1777 19.1578 32.5062 19.8295 31.6777 19.8295C30.8493 19.8295 30.1777 19.1578 30.1777 18.3294C30.1777 17.501 30.8493 16.8293 31.6777 16.8293C32.5062 16.8293 33.1777 17.501 33.1777 18.3294Z" fill="white"/>
</svg>
